<svg xmlns="http://www.w3.org/2000/svg" viewBox="0 0 512 512">
  <path fill="currentColor"
    d="m 297.17773,51.857422 c -53.4052,0.473863 -155.29882,9.222656 -155.29882,9.222656 V 413.12891 l 80.02148,12.78906 V 149.34951 a 18.759669,18.759669 135 0 1 18.75967,-18.75967 h 13.27353 41.03125 c 4.72209,0 32.47657,10.93232 32.47657,48.14453 0,37.21222 -25.99931,48.76563 -32.47657,48.76563 h -17.51199 a 23.515264,23.515264 135 0 0 -23.51526,23.51526 l 0,53.42224 c 21.93613,46.82524 44.82697,93.70347 67.33207,140.43359 l 106.28906,17.79493 -85.60937,-164.48243 c 0,0 88.32775,-26.57286 80.79883,-129.85351 C 415.21913,65.049431 325.82729,52.773152 316.66016,52.210937 c -5.21169,-0.319628 -11.85311,-0.42121 -19.48243,-0.353515 z"
    transform="translate(-28.718815)" />
</svg>